<svg width="305" height="132" viewBox="0 0 305 132" fill="none" xmlns="http://www.w3.org/2000/svg">
<path d="M117.355 85.756C111.739 85.756 107.365 84.226 104.233 81.166C101.137 78.106 99.5888 73.768 99.5888 68.152V47.2H110.281V67.828C110.281 73.876 112.675 76.9 117.463 76.9C122.215 76.9 124.591 73.876 124.591 67.828V47.2H135.121V68.152C135.121 73.768 133.555 78.106 130.423 81.166C127.327 84.226 122.971 85.756 117.355 85.756ZM142.364 47.2H153.056V76.522H171.092V85H142.364V47.2ZM179.836 55.678H168.226V47.2H202.084V55.678H190.528V85H179.836V55.678ZM222.591 74.956H216.759V85H206.067V47.2H223.347C226.767 47.2 229.737 47.776 232.257 48.928C234.777 50.044 236.721 51.664 238.089 53.788C239.457 55.876 240.141 58.342 240.141 61.186C240.141 63.922 239.493 66.316 238.197 68.368C236.937 70.384 235.119 71.968 232.743 73.12L240.897 85H229.449L222.591 74.956ZM229.341 61.186C229.341 59.422 228.783 58.054 227.667 57.082C226.551 56.11 224.895 55.624 222.699 55.624H216.759V66.694H222.699C224.895 66.694 226.551 66.226 227.667 65.29C228.783 64.318 229.341 62.95 229.341 61.186ZM271.366 77.656H255.382L252.412 85H241.504L258.19 47.2H268.72L285.46 85H274.336L271.366 77.656ZM268.234 69.772L263.374 57.676L258.514 69.772H268.234ZM30.106 110.29H39.556V125.95C37.396 127.498 34.912 128.686 32.104 129.514C29.296 130.342 26.488 130.756 23.68 130.756C19.72 130.756 16.156 129.928 12.988 128.272C9.82 126.58 7.336 124.24 5.536 121.252C3.736 118.264 2.836 114.88 2.836 111.1C2.836 107.32 3.736 103.936 5.536 100.948C7.336 97.96 9.838 95.638 13.042 93.982C16.246 92.29 19.864 91.444 23.896 91.444C27.424 91.444 30.592 92.038 33.4 93.226C36.208 94.414 38.548 96.124 40.42 98.356L33.616 104.512C31.06 101.704 28 100.3 24.436 100.3C21.196 100.3 18.586 101.29 16.606 103.27C14.626 105.214 13.636 107.824 13.636 111.1C13.636 113.188 14.086 115.06 14.986 116.716C15.886 118.336 17.146 119.614 18.766 120.55C20.386 121.45 22.24 121.9 24.328 121.9C26.38 121.9 28.306 121.486 30.106 120.658V110.29ZM46.3347 92.2H57.0267V130H46.3347V92.2ZM75.3255 100.462V108.778H92.0115V117.04H75.3255V130H64.6335V92.2H94.2795V100.462H75.3255Z" fill="#F0EEDF"/>
<path d="M64.072 2.2L65.0232 2.50847L65.4476 1.2H64.072V2.2ZM51.814 40V41H52.541L52.7652 40.3085L51.814 40ZM40.366 40L39.4121 40.3001L39.6323 41H40.366V40ZM33.13 16.996L34.0839 16.6959L33.1508 13.7296L32.18 16.6838L33.13 16.996ZM25.57 40V41H26.294L26.52 40.3122L25.57 40ZM14.122 40L13.1708 40.3085L13.395 41H14.122V40ZM1.864 2.2V1.2H0.488448L0.912766 2.50847L1.864 2.2ZM12.88 2.2L13.8337 1.89917L13.6131 1.2H12.88V2.2ZM20.494 26.338L19.5403 26.6388L20.471 29.5891L21.4433 26.6523L20.494 26.338ZM28.486 2.2V1.2H27.7637L27.5367 1.88568L28.486 2.2ZM38.314 2.2L39.2684 1.9016L39.0491 1.2H38.314V2.2ZM45.928 26.554L44.9736 26.8524L45.9082 29.8418L46.8788 26.8639L45.928 26.554ZM53.866 2.2V1.2H53.1402L52.9152 1.8901L53.866 2.2ZM63.1208 1.89153L50.8628 39.6915L52.7652 40.3085L65.0232 2.50847L63.1208 1.89153ZM51.814 39H40.366V41H51.814V39ZM41.3199 39.6999L34.0839 16.6959L32.1761 17.2961L39.4121 40.3001L41.3199 39.6999ZM32.18 16.6838L24.62 39.6878L26.52 40.3122L34.08 17.3082L32.18 16.6838ZM25.57 39H14.122V41H25.57V39ZM15.0732 39.6915L2.81523 1.89153L0.912766 2.50847L13.1708 40.3085L15.0732 39.6915ZM1.864 3.2H12.88V1.2H1.864V3.2ZM11.9263 2.50082L19.5403 26.6388L21.4477 26.0372L13.8337 1.89917L11.9263 2.50082ZM21.4433 26.6523L29.4353 2.51431L27.5367 1.88568L19.5447 26.0237L21.4433 26.6523ZM28.486 3.2H38.314V1.2H28.486V3.2ZM37.3596 2.49839L44.9736 26.8524L46.8824 26.2556L39.2684 1.9016L37.3596 2.49839ZM46.8788 26.8639L54.8168 2.50989L52.9152 1.8901L44.9772 26.2441L46.8788 26.8639ZM53.866 3.2H64.072V1.2H53.866V3.2ZM98.251 31.738H99.251V30.738H98.251V31.738ZM98.251 40V41H99.251V40H98.251ZM67.903 40H66.903V41H67.903V40ZM67.903 2.2V1.2H66.903V2.2H67.903ZM97.549 2.2H98.549V1.2H97.549V2.2ZM97.549 10.462V11.462H98.549V10.462H97.549ZM78.487 10.462V9.462H77.487V10.462H78.487ZM78.487 16.834H77.487V17.834H78.487V16.834ZM95.2811 16.834H96.2811V15.834H95.2811V16.834ZM95.2811 24.826V25.826H96.2811V24.826H95.2811ZM78.487 24.826V23.826H77.487V24.826H78.487ZM78.487 31.738H77.487V32.738H78.487V31.738ZM97.251 31.738V40H99.251V31.738H97.251ZM98.251 39H67.903V41H98.251V39ZM68.903 40V2.2H66.903V40H68.903ZM67.903 3.2H97.549V1.2H67.903V3.2ZM96.549 2.2V10.462H98.549V2.2H96.549ZM97.549 9.462H78.487V11.462H97.549V9.462ZM77.487 10.462V16.834H79.487V10.462H77.487ZM78.487 17.834H95.2811V15.834H78.487V17.834ZM94.2811 16.834V24.826H96.2811V16.834H94.2811ZM95.2811 23.826H78.487V25.826H95.2811V23.826ZM77.487 24.826V31.738H79.487V24.826H77.487ZM78.487 32.738H98.251V30.738H78.487V32.738ZM104.184 2.2V1.2H103.184V2.2H104.184ZM114.876 2.2H115.876V1.2H114.876V2.2ZM114.876 31.522H113.876V32.522H114.876V31.522ZM132.912 31.522H133.912V30.522H132.912V31.522ZM132.912 40V41H133.912V40H132.912ZM104.184 40H103.184V41H104.184V40ZM104.184 3.2H114.876V1.2H104.184V3.2ZM113.876 2.2V31.522H115.876V2.2H113.876ZM114.876 32.522H132.912V30.522H114.876V32.522ZM131.912 31.522V40H133.912V31.522H131.912ZM132.912 39H104.184V41H132.912V39ZM105.184 40V2.2H103.184V40H105.184ZM144.717 38.272L144.242 39.1519L144.254 39.1582L144.717 38.272ZM137.319 31.252L138.176 30.736L137.319 31.252ZM137.319 10.948L136.463 10.432L137.319 10.948ZM144.717 3.982L145.185 4.86604L145.188 4.86407L144.717 3.982ZM164.751 3.28L164.347 4.19479V4.19479L164.751 3.28ZM171.663 8.572L172.334 9.31353L173.031 8.68336L172.445 7.9488L171.663 8.572ZM164.859 14.728L164.089 15.3663L164.756 16.17L165.53 15.4695L164.859 14.728ZM150.441 11.65L149.956 10.7758L149.947 10.7805L150.441 11.65ZM146.715 15.484L145.837 15.0065L145.833 15.0134L146.715 15.484ZM146.715 26.77L145.829 27.2326L145.835 27.2442L145.841 27.2556L146.715 26.77ZM150.441 30.55L149.947 31.4195L149.956 31.4242L150.441 30.55ZM164.859 27.472L165.53 26.7305L164.756 26.03L164.089 26.8337L164.859 27.472ZM171.663 33.628L172.445 34.2512L173.031 33.5166L172.334 32.8865L171.663 33.628ZM164.751 38.92L164.347 38.0052L164.751 38.92ZM155.409 39.756C151.593 39.756 148.191 38.9593 145.18 37.3858L144.254 39.1582C147.58 40.8967 151.306 41.756 155.409 41.756V39.756ZM145.193 37.3922C142.214 35.7833 139.882 33.5675 138.176 30.736L136.463 31.768C138.357 34.9125 140.956 37.3767 144.242 39.1518L145.193 37.3922ZM138.176 30.736C136.477 27.9167 135.619 24.7139 135.619 21.1H133.619C133.619 25.0461 134.561 28.6113 136.463 31.768L138.176 30.736ZM135.619 21.1C135.619 17.4861 136.477 14.2833 138.176 11.464L136.463 10.432C134.561 13.5887 133.619 17.1539 133.619 21.1H135.619ZM138.176 11.464C139.88 8.63434 142.211 6.43843 145.185 4.86603L144.25 3.09796C140.96 4.83757 138.358 7.28566 136.463 10.432L138.176 11.464ZM145.188 4.86407C148.197 3.25721 151.596 2.444 155.409 2.444V0.443997C151.302 0.443997 147.574 1.32278 144.246 3.09992L145.188 4.86407ZM155.409 2.444C158.746 2.444 161.719 3.03435 164.347 4.19479L165.155 2.36521C162.239 1.07765 158.985 0.443997 155.409 0.443997V2.444ZM164.347 4.19479C166.976 5.35549 169.149 7.0212 170.881 9.1952L172.445 7.9488C170.506 5.5148 168.07 3.65251 165.155 2.36521L164.347 4.19479ZM170.992 7.83046L164.188 13.9865L165.53 15.4695L172.334 9.31353L170.992 7.83046ZM165.629 14.0897C163.012 10.9341 159.77 9.3 155.949 9.3V11.3C159.112 11.3 161.81 12.6179 164.089 15.3663L165.629 14.0897ZM155.949 9.3C153.746 9.3 151.74 9.78471 149.956 10.7758L150.927 12.5242C152.383 11.7153 154.049 11.3 155.949 11.3V9.3ZM149.947 10.7805C148.195 11.776 146.822 13.1925 145.837 15.0065L147.594 15.9615C148.408 14.4635 149.519 13.324 150.935 12.5195L149.947 10.7805ZM145.833 15.0134C144.88 16.7995 144.419 18.8378 144.419 21.1H146.419C146.419 19.1142 146.822 17.4085 147.598 15.9546L145.833 15.0134ZM144.419 21.1C144.419 23.3628 144.88 25.4152 145.829 27.2326L147.602 26.3074C146.822 24.8128 146.419 23.0852 146.419 21.1H144.419ZM145.841 27.2556C146.829 29.0331 148.201 30.4272 149.947 31.4195L150.935 29.6805C149.514 28.8728 148.402 27.7469 147.589 26.2844L145.841 27.2556ZM149.956 31.4242C151.74 32.4153 153.746 32.9 155.949 32.9V30.9C154.049 30.9 152.383 30.4847 150.927 29.6758L149.956 31.4242ZM155.949 32.9C159.77 32.9 163.012 31.2659 165.629 28.1103L164.089 26.8337C161.81 29.5821 159.112 30.9 155.949 30.9V32.9ZM164.188 28.2135L170.992 34.3695L172.334 32.8865L165.53 26.7305L164.188 28.2135ZM170.881 33.0048C169.149 35.1788 166.976 36.8445 164.347 38.0052L165.155 39.8348C168.07 38.5475 170.506 36.6852 172.445 34.2512L170.881 33.0048ZM164.347 38.0052C161.719 39.1656 158.746 39.756 155.409 39.756V41.756C158.985 41.756 162.239 41.1223 165.155 39.8348L164.347 38.0052ZM183.901 38.218L183.43 39.1001L183.434 39.1023L183.901 38.218ZM176.395 31.198L175.539 31.714L175.543 31.7215L176.395 31.198ZM176.395 11.002L175.543 10.4785L175.539 10.486L176.395 11.002ZM183.901 3.982L183.434 3.09772L183.43 3.09992L183.901 3.982ZM205.447 3.982L204.976 4.86408L204.98 4.86627L205.447 3.982ZM212.953 11.002L212.097 11.518L212.101 11.5255L212.953 11.002ZM212.953 31.198L212.101 30.6745L212.097 30.682L212.953 31.198ZM205.447 38.218L204.98 37.3337L204.976 37.3359L205.447 38.218ZM199.885 30.55L200.388 31.4145L199.885 30.55ZM203.557 26.77L204.432 27.2557L204.436 27.2475L203.557 26.77ZM203.557 15.484L202.679 15.9615L202.683 15.9696L203.557 15.484ZM199.885 11.65L200.388 10.7855V10.7855L199.885 11.65ZM189.517 11.65L189.015 10.7855L189.517 11.65ZM185.845 15.484L186.72 15.9697L186.724 15.9615L185.845 15.484ZM185.845 26.77L184.967 27.2475L184.971 27.2556L185.845 26.77ZM189.517 30.55L190.02 29.6855H190.02L189.517 30.55ZM194.701 39.756C190.851 39.756 187.414 38.9421 184.368 37.3337L183.434 39.1023C186.797 40.8779 190.56 41.756 194.701 41.756V39.756ZM184.372 37.3359C181.357 35.7254 178.988 33.5075 177.247 30.6745L175.543 31.7215C177.475 34.8645 180.11 37.3266 183.43 39.1001L184.372 37.3359ZM177.252 30.682C175.553 27.8612 174.695 24.676 174.695 21.1H172.695C172.695 25.012 173.638 28.5588 175.539 31.714L177.252 30.682ZM174.695 21.1C174.695 17.524 175.553 14.3388 177.252 11.518L175.539 10.486C173.638 13.6412 172.695 17.188 172.695 21.1H174.695ZM177.247 11.5255C178.988 8.6925 181.357 6.47458 184.372 4.86407L183.43 3.09992C180.11 4.87341 177.475 7.3355 175.543 10.4785L177.247 11.5255ZM184.368 4.86627C187.414 3.25786 190.851 2.444 194.701 2.444V0.443997C190.56 0.443997 186.797 1.32214 183.434 3.09773L184.368 4.86627ZM194.701 2.444C198.552 2.444 201.969 3.2579 204.976 4.86407L205.918 3.09992C202.59 1.32209 198.843 0.443997 194.701 0.443997V2.444ZM204.98 4.86627C208.03 6.47671 210.394 8.69214 212.097 11.518L213.81 10.486C211.912 7.33586 209.273 4.87129 205.914 3.09773L204.98 4.86627ZM212.101 11.5255C213.834 14.3453 214.707 17.5278 214.707 21.1H216.707C216.707 17.1842 215.745 13.6347 213.805 10.4785L212.101 11.5255ZM214.707 21.1C214.707 24.6722 213.834 27.8547 212.101 30.6745L213.805 31.7215C215.745 28.5653 216.707 25.0158 216.707 21.1H214.707ZM212.097 30.682C210.394 33.5079 208.03 35.7233 204.98 37.3337L205.914 39.1023C209.273 37.3287 211.912 34.8641 213.81 31.714L212.097 30.682ZM204.976 37.3359C201.969 38.9421 198.552 39.756 194.701 39.756V41.756C198.843 41.756 202.59 40.8779 205.918 39.1001L204.976 37.3359ZM194.701 32.9C196.774 32.9 198.677 32.4091 200.388 31.4145L199.383 29.6855C197.997 30.4909 196.445 30.9 194.701 30.9V32.9ZM200.388 31.4145C202.097 30.4207 203.447 29.0273 204.432 27.2556L202.683 26.2844C201.867 27.7527 200.769 28.8793 199.383 29.6855L200.388 31.4145ZM204.436 27.2475C205.425 25.4272 205.907 23.3693 205.907 21.1H203.907C203.907 23.0787 203.489 24.8008 202.679 26.2925L204.436 27.2475ZM205.907 21.1C205.907 18.8312 205.425 16.7874 204.432 14.9984L202.683 15.9696C203.489 17.4206 203.907 19.1208 203.907 21.1H205.907ZM204.436 15.0065C203.453 13.1983 202.103 11.7825 200.388 10.7855L199.383 12.5145C200.764 13.3175 201.861 14.4577 202.679 15.9615L204.436 15.0065ZM200.388 10.7855C198.677 9.7909 196.774 9.3 194.701 9.3V11.3C196.445 11.3 197.997 11.7091 199.383 12.5145L200.388 10.7855ZM194.701 9.3C192.629 9.3 190.725 9.7909 189.015 10.7855L190.02 12.5145C191.405 11.7091 192.958 11.3 194.701 11.3V9.3ZM189.015 10.7855C187.3 11.7825 185.949 13.1983 184.967 15.0065L186.724 15.9615C187.541 14.4577 188.639 13.3175 190.02 12.5145L189.015 10.7855ZM184.971 14.9984C183.977 16.7874 183.495 18.8312 183.495 21.1H185.495C185.495 19.1208 185.913 17.4206 186.72 15.9696L184.971 14.9984ZM183.495 21.1C183.495 23.3693 183.977 25.4272 184.967 27.2475L186.724 26.2925C185.913 24.8008 185.495 23.0787 185.495 21.1H183.495ZM184.971 27.2556C185.955 29.0273 187.305 30.4207 189.015 31.4145L190.02 29.6855C188.633 28.8793 187.535 27.7527 186.72 26.2844L184.971 27.2556ZM189.015 31.4145C190.725 32.4091 192.629 32.9 194.701 32.9V30.9C192.958 30.9 191.405 30.4909 190.02 29.6855L189.015 31.4145ZM255.435 40L254.435 40.0054L254.441 41H255.435V40ZM255.327 19.966L256.327 19.9606L256.308 16.3676L254.468 19.454L255.327 19.966ZM245.607 36.274V37.274H246.175L246.466 36.786L245.607 36.274ZM240.855 36.274L240.003 36.7966L240.295 37.274H240.855V36.274ZM231.189 20.506L232.042 19.9834L230.189 16.9613V20.506H231.189ZM231.189 40V41H232.189V40H231.189ZM221.307 40H220.307V41H221.307V40ZM221.307 2.2V1.2H220.307V2.2H221.307ZM230.109 2.2L230.963 1.67992L230.671 1.2H230.109V2.2ZM243.393 24.016L242.539 24.5361L243.404 25.9562L244.253 24.5267L243.393 24.016ZM256.353 2.2V1.2H255.784L255.494 1.68926L256.353 2.2ZM265.155 2.2L266.155 2.19714L266.152 1.2H265.155V2.2ZM265.263 40V41H266.266L266.263 39.9971L265.263 40ZM256.435 39.9946L256.327 19.9606L254.327 19.9714L254.435 40.0054L256.435 39.9946ZM254.468 19.454L244.748 35.762L246.466 36.786L256.186 20.478L254.468 19.454ZM245.607 35.274H240.855V37.274H245.607V35.274ZM241.708 35.7514L232.042 19.9834L230.337 21.0286L240.003 36.7966L241.708 35.7514ZM230.189 20.506V40H232.189V20.506H230.189ZM231.189 39H221.307V41H231.189V39ZM222.307 40V2.2H220.307V40H222.307ZM221.307 3.2H230.109V1.2H221.307V3.2ZM229.255 2.72008L242.539 24.5361L244.247 23.4959L230.963 1.67992L229.255 2.72008ZM244.253 24.5267L257.213 2.71073L255.494 1.68926L242.534 23.5053L244.253 24.5267ZM256.353 3.2H265.155V1.2H256.353V3.2ZM264.155 2.20285L264.263 40.0029L266.263 39.9971L266.155 2.19714L264.155 2.20285ZM265.263 39H255.435V41H265.263V39ZM303.177 31.738H304.177V30.738H303.177V31.738ZM303.177 40V41H304.177V40H303.177ZM272.829 40H271.829V41H272.829V40ZM272.829 2.2V1.2H271.829V2.2H272.829ZM302.475 2.2H303.475V1.2H302.475V2.2ZM302.475 10.462V11.462H303.475V10.462H302.475ZM283.413 10.462V9.462H282.413V10.462H283.413ZM283.413 16.834H282.413V17.834H283.413V16.834ZM300.207 16.834H301.207V15.834H300.207V16.834ZM300.207 24.826V25.826H301.207V24.826H300.207ZM283.413 24.826V23.826H282.413V24.826H283.413ZM283.413 31.738H282.413V32.738H283.413V31.738ZM302.177 31.738V40H304.177V31.738H302.177ZM303.177 39H272.829V41H303.177V39ZM273.829 40V2.2H271.829V40H273.829ZM272.829 3.2H302.475V1.2H272.829V3.2ZM301.475 2.2V10.462H303.475V2.2H301.475ZM302.475 9.462H283.413V11.462H302.475V9.462ZM282.413 10.462V16.834H284.413V10.462H282.413ZM283.413 17.834H300.207V15.834H283.413V17.834ZM299.207 16.834V24.826H301.207V16.834H299.207ZM300.207 23.826H283.413V25.826H300.207V23.826ZM282.413 24.826V31.738H284.413V24.826H282.413ZM283.413 32.738H303.177V30.738H283.413V32.738ZM12.826 55.678H13.826V54.678H12.826V55.678ZM1.216 55.678H0.216V56.678H1.216V55.678ZM1.216 47.2V46.2H0.216V47.2H1.216ZM35.074 47.2H36.074V46.2H35.074V47.2ZM35.074 55.678V56.678H36.074V55.678H35.074ZM23.518 55.678V54.678H22.518V55.678H23.518ZM23.518 85V86H24.518V85H23.518ZM12.826 85H11.826V86H12.826V85ZM12.826 54.678H1.216V56.678H12.826V54.678ZM2.216 55.678V47.2H0.216V55.678H2.216ZM1.216 48.2H35.074V46.2H1.216V48.2ZM34.074 47.2V55.678H36.074V47.2H34.074ZM35.074 54.678H23.518V56.678H35.074V54.678ZM22.518 55.678V85H24.518V55.678H22.518ZM23.518 84H12.826V86H23.518V84ZM13.826 85V55.678H11.826V85H13.826ZM46.792 83.218L46.3209 84.1001L46.325 84.1023L46.792 83.218ZM39.286 76.198L38.4294 76.714L38.434 76.7215L39.286 76.198ZM39.286 56.002L38.434 55.4785L38.4294 55.486L39.286 56.002ZM46.792 48.982L46.325 48.0977L46.3209 48.0999L46.792 48.982ZM68.338 48.982L67.8669 49.8641L67.871 49.8663L68.338 48.982ZM75.844 56.002L74.9874 56.518L74.992 56.5255L75.844 56.002ZM75.844 76.198L74.992 75.6745L74.9874 75.682L75.844 76.198ZM68.338 83.218L67.871 82.3337L67.8669 82.3359L68.338 83.218ZM62.776 75.55L63.2786 76.4145L62.776 75.55ZM66.448 71.77L67.3222 72.2557L67.3266 72.2475L66.448 71.77ZM66.448 60.484L65.5693 60.9615L65.5738 60.9696L66.448 60.484ZM62.776 56.65L63.2786 55.7855H63.2786L62.776 56.65ZM52.408 56.65L51.9054 55.7855L52.408 56.65ZM48.736 60.484L49.6102 60.9697L49.6146 60.9615L48.736 60.484ZM48.736 71.77L47.8573 72.2475L47.8618 72.2556L48.736 71.77ZM52.408 75.55L52.9106 74.6855L52.408 75.55ZM57.592 84.756C53.7417 84.756 50.3047 83.9421 47.259 82.3337L46.325 84.1023C49.6873 85.8779 53.4503 86.756 57.592 86.756V84.756ZM47.2631 82.3359C44.2477 80.7254 41.8788 78.5075 40.138 75.6745L38.434 76.7215C40.3652 79.8645 43.0003 82.3266 46.3209 84.1001L47.2631 82.3359ZM40.1426 75.682C38.4433 72.8612 37.586 69.676 37.586 66.1H35.586C35.586 70.012 36.5287 73.5588 38.4294 76.714L40.1426 75.682ZM37.586 66.1C37.586 62.524 38.4433 59.3388 40.1426 56.518L38.4294 55.486C36.5287 58.6412 35.586 62.188 35.586 66.1H37.586ZM40.138 56.5255C41.8788 53.6925 44.2477 51.4746 47.2631 49.8641L46.3209 48.0999C43.0003 49.8734 40.3652 52.3355 38.434 55.4785L40.138 56.5255ZM47.259 49.8663C50.3047 48.2579 53.7417 47.444 57.592 47.444V45.444C53.4503 45.444 49.6873 46.3221 46.325 48.0977L47.259 49.8663ZM57.592 47.444C61.4425 47.444 64.8596 48.2579 67.8669 49.8641L68.8091 48.0999C65.4804 46.3221 61.7335 45.444 57.592 45.444V47.444ZM67.871 49.8663C70.9206 51.4767 73.2851 53.6921 74.9874 56.518L76.7006 55.486C74.8029 52.3359 72.1634 49.8713 68.805 48.0977L67.871 49.8663ZM74.992 56.5255C76.7246 59.3453 77.598 62.5278 77.598 66.1H79.598C79.598 62.1842 78.6354 58.6347 76.696 55.4785L74.992 56.5255ZM77.598 66.1C77.598 69.6722 76.7246 72.8547 74.992 75.6745L76.696 76.7215C78.6354 73.5653 79.598 70.0158 79.598 66.1H77.598ZM74.9874 75.682C73.2851 78.5079 70.9206 80.7233 67.871 82.3337L68.805 84.1023C72.1634 82.3287 74.8029 79.8641 76.7006 76.714L74.9874 75.682ZM67.8669 82.3359C64.8596 83.9421 61.4425 84.756 57.592 84.756V86.756C61.7335 86.756 65.4804 85.8779 68.8091 84.1001L67.8669 82.3359ZM57.592 77.9C59.6646 77.9 61.5679 77.4091 63.2786 76.4145L62.2734 74.6855C60.8881 75.4909 59.3354 75.9 57.592 75.9V77.9ZM63.2786 76.4145C64.9879 75.4207 66.3379 74.0273 67.3222 72.2556L65.5738 71.2844C64.7581 72.7527 63.6601 73.8793 62.2734 74.6855L63.2786 76.4145ZM67.3266 72.2475C68.3159 70.4272 68.798 68.3693 68.798 66.1H66.798C66.798 68.0787 66.3801 69.8008 65.5694 71.2925L67.3266 72.2475ZM68.798 66.1C68.798 63.8312 68.3161 61.7874 67.3222 59.9984L65.5738 60.9696C66.3799 62.4206 66.798 64.1208 66.798 66.1H68.798ZM67.3266 60.0065C66.3439 58.1983 64.9935 56.7825 63.2786 55.7855L62.2734 57.5145C63.6545 58.3175 64.7521 59.4577 65.5694 60.9615L67.3266 60.0065ZM63.2786 55.7855C61.5679 54.7909 59.6646 54.3 57.592 54.3V56.3C59.3354 56.3 60.8881 56.7091 62.2734 57.5145L63.2786 55.7855ZM57.592 54.3C55.5194 54.3 53.6161 54.7909 51.9054 55.7855L52.9106 57.5145C54.2959 56.7091 55.8486 56.3 57.592 56.3V54.3ZM51.9054 55.7855C50.1905 56.7825 48.8401 58.1983 47.8574 60.0065L49.6146 60.9615C50.4319 59.4577 51.5295 58.3175 52.9106 57.5145L51.9054 55.7855ZM47.8618 59.9984C46.8679 61.7874 46.386 63.8312 46.386 66.1H48.386C48.386 64.1208 48.8041 62.4206 49.6102 60.9696L47.8618 59.9984ZM46.386 66.1C46.386 68.3693 46.8681 70.4272 47.8574 72.2475L49.6146 71.2925C48.8039 69.8008 48.386 68.0787 48.386 66.1H46.386ZM47.8618 72.2556C48.8461 74.0273 50.1961 75.4207 51.9054 76.4145L52.9106 74.6855C51.5239 73.8793 50.4259 72.7527 49.6102 71.2844L47.8618 72.2556ZM51.9054 76.4145C53.6161 77.4091 55.5194 77.9 57.592 77.9V75.9C55.8486 75.9 54.2959 75.4909 52.9106 74.6855L51.9054 76.4145ZM104.233 81.166L103.53 81.8772L103.534 81.8813L104.233 81.166ZM99.5888 47.2V46.2H98.5888V47.2H99.5888ZM110.281 47.2H111.281V46.2H110.281V47.2ZM124.591 47.2V46.2H123.591V47.2H124.591ZM135.121 47.2H136.121V46.2H135.121V47.2ZM130.423 81.166L129.724 80.4507L129.72 80.4548L130.423 81.166ZM117.355 84.756C111.923 84.756 107.828 83.2806 104.932 80.4507L103.534 81.8813C106.901 85.1714 111.555 86.756 117.355 86.756V84.756ZM104.936 80.4548C102.081 77.6329 100.589 73.5819 100.589 68.152H98.5888C98.5888 73.9541 100.193 78.5791 103.53 81.8772L104.936 80.4548ZM100.589 68.152V47.2H98.5888V68.152H100.589ZM99.5888 48.2H110.281V46.2H99.5888V48.2ZM109.281 47.2V67.828H111.281V47.2H109.281ZM109.281 67.828C109.281 70.957 109.896 73.4885 111.292 75.2527C112.724 77.0615 114.844 77.9 117.463 77.9V75.9C115.293 75.9 113.822 75.2265 112.86 74.0113C111.863 72.7515 111.281 70.747 111.281 67.828H109.281ZM117.463 77.9C120.066 77.9 122.173 77.0596 123.595 75.2498C124.981 73.4859 125.591 70.9557 125.591 67.828H123.591C123.591 70.7483 123.013 72.7541 122.022 74.0142C121.068 75.2284 119.612 75.9 117.463 75.9V77.9ZM125.591 67.828V47.2H123.591V67.828H125.591ZM124.591 48.2H135.121V46.2H124.591V48.2ZM134.121 47.2V68.152H136.121V47.2H134.121ZM134.121 68.152C134.121 73.5787 132.613 77.6283 129.724 80.4507L131.122 81.8813C134.497 78.5837 136.121 73.9573 136.121 68.152H134.121ZM129.72 80.4548C126.861 83.2804 122.787 84.756 117.355 84.756V86.756C123.154 86.756 127.793 85.1716 131.126 81.8772L129.72 80.4548ZM142.364 47.2V46.2H141.364V47.2H142.364ZM153.056 47.2H154.056V46.2H153.056V47.2ZM153.056 76.522H152.056V77.522H153.056V76.522ZM171.092 76.522H172.092V75.522H171.092V76.522ZM171.092 85V86H172.092V85H171.092ZM142.364 85H141.364V86H142.364V85ZM142.364 48.2H153.056V46.2H142.364V48.2ZM152.056 47.2V76.522H154.056V47.2H152.056ZM153.056 77.522H171.092V75.522H153.056V77.522ZM170.092 76.522V85H172.092V76.522H170.092ZM171.092 84H142.364V86H171.092V84ZM143.364 85V47.2H141.364V85H143.364ZM179.836 55.678H180.836V54.678H179.836V55.678ZM168.226 55.678H167.226V56.678H168.226V55.678ZM168.226 47.2V46.2H167.226V47.2H168.226ZM202.084 47.2H203.084V46.2H202.084V47.2ZM202.084 55.678V56.678H203.084V55.678H202.084ZM190.528 55.678V54.678H189.528V55.678H190.528ZM190.528 85V86H191.528V85H190.528ZM179.836 85H178.836V86H179.836V85ZM179.836 54.678H168.226V56.678H179.836V54.678ZM169.226 55.678V47.2H167.226V55.678H169.226ZM168.226 48.2H202.084V46.2H168.226V48.2ZM201.084 47.2V55.678H203.084V47.2H201.084ZM202.084 54.678H190.528V56.678H202.084V54.678ZM189.528 55.678V85H191.528V55.678H189.528ZM190.528 84H179.836V86H190.528V84ZM180.836 85V55.678H178.836V85H180.836ZM222.591 74.956L223.417 74.3921L223.119 73.956H222.591V74.956ZM216.759 74.956V73.956H215.759V74.956H216.759ZM216.759 85V86H217.759V85H216.759ZM206.067 85H205.067V86H206.067V85ZM206.067 47.2V46.2H205.067V47.2H206.067ZM232.257 48.928L231.841 49.8375L231.852 49.8423L232.257 48.928ZM238.089 53.788L237.248 54.3295L237.253 54.336L238.089 53.788ZM238.197 68.368L237.352 67.834L237.349 67.838L238.197 68.368ZM232.743 73.12L232.307 72.2202L231.261 72.7274L231.919 73.6859L232.743 73.12ZM240.897 85V86H242.796L241.722 84.4341L240.897 85ZM229.449 85L228.623 85.5639L228.921 86H229.449V85ZM216.759 55.624V54.624H215.759V55.624H216.759ZM216.759 66.694H215.759V67.694H216.759V66.694ZM227.667 65.29L228.31 66.0562L228.317 66.0502L228.324 66.0441L227.667 65.29ZM222.591 73.956H216.759V75.956H222.591V73.956ZM215.759 74.956V85H217.759V74.956H215.759ZM216.759 84H206.067V86H216.759V84ZM207.067 85V47.2H205.067V85H207.067ZM206.067 48.2H223.347V46.2H206.067V48.2ZM223.347 48.2C226.656 48.2 229.479 48.7574 231.841 49.8375L232.673 48.0185C229.996 46.7946 226.878 46.2 223.347 46.2V48.2ZM231.852 49.8423C234.211 50.8868 235.996 52.3845 237.248 54.3295L238.93 53.2465C237.446 50.9435 235.344 49.2012 232.662 48.0136L231.852 49.8423ZM237.253 54.336C238.5 56.2393 239.141 58.5088 239.141 61.186H241.141C241.141 58.1752 240.415 55.5127 238.926 53.24L237.253 54.336ZM239.141 61.186C239.141 63.7577 238.534 65.9615 237.352 67.834L239.043 68.902C240.452 66.6705 241.141 64.0863 241.141 61.186H239.141ZM237.349 67.838C236.2 69.6771 234.533 71.1409 232.307 72.2202L233.179 74.0198C235.705 72.7951 237.675 71.0909 239.045 68.898L237.349 67.838ZM231.919 73.6859L240.073 85.5659L241.722 84.4341L233.568 72.5541L231.919 73.6859ZM240.897 84H229.449V86H240.897V84ZM230.275 84.4361L223.417 74.3921L221.765 75.5199L228.623 85.5639L230.275 84.4361ZM230.341 61.186C230.341 59.1937 229.7 57.5265 228.324 56.3279L227.01 57.8361C227.866 58.5815 228.341 59.6503 228.341 61.186H230.341ZM228.324 56.3279C226.955 55.1359 225.023 54.624 222.699 54.624V56.624C224.767 56.624 226.147 57.0841 227.01 57.8361L228.324 56.3279ZM222.699 54.624H216.759V56.624H222.699V54.624ZM215.759 55.624V66.694H217.759V55.624H215.759ZM216.759 67.694H222.699V65.694H216.759V67.694ZM222.699 67.694C225.015 67.694 226.942 67.2034 228.31 66.0562L227.025 64.5238C226.16 65.2486 224.775 65.694 222.699 65.694V67.694ZM228.324 66.0441C229.7 64.8455 230.341 63.1783 230.341 61.186H228.341C228.341 62.7217 227.866 63.7905 227.01 64.5359L228.324 66.0441ZM271.366 77.656L272.293 77.2811L272.04 76.656H271.366V77.656ZM255.382 77.656V76.656H254.708L254.455 77.2811L255.382 77.656ZM252.412 85V86H253.086L253.339 85.3749L252.412 85ZM241.504 85L240.589 84.5962L239.969 86H241.504V85ZM258.19 47.2V46.2H257.538L257.275 46.7962L258.19 47.2ZM268.72 47.2L269.634 46.7951L269.371 46.2H268.72V47.2ZM285.46 85V86H286.996L286.374 84.5951L285.46 85ZM274.336 85L273.409 85.3749L273.661 86H274.336V85ZM268.234 69.772V70.772H269.713L269.162 69.3992L268.234 69.772ZM263.374 57.676L264.302 57.3032L263.374 54.9937L262.446 57.3032L263.374 57.676ZM258.514 69.772L257.586 69.3992L257.034 70.772H258.514V69.772ZM271.366 76.656H255.382V78.656H271.366V76.656ZM254.455 77.2811L251.485 84.6251L253.339 85.3749L256.309 78.0309L254.455 77.2811ZM252.412 84H241.504V86H252.412V84ZM242.419 85.4038L259.105 47.6038L257.275 46.7962L240.589 84.5962L242.419 85.4038ZM258.19 48.2H268.72V46.2H258.19V48.2ZM267.805 47.6049L284.545 85.4049L286.374 84.5951L269.634 46.7951L267.805 47.6049ZM285.46 84H274.336V86H285.46V84ZM275.263 84.6251L272.293 77.2811L270.439 78.0309L273.409 85.3749L275.263 84.6251ZM269.162 69.3992L264.302 57.3032L262.446 58.0488L267.306 70.1448L269.162 69.3992ZM262.446 57.3032L257.586 69.3992L259.442 70.1448L264.302 58.0488L262.446 57.3032ZM258.514 70.772H268.234V68.772H258.514V70.772ZM30.106 110.29V109.29H29.106V110.29H30.106ZM39.556 110.29H40.556V109.29H39.556V110.29ZM39.556 125.95L40.1385 126.763L40.556 126.464V125.95H39.556ZM12.988 128.272L12.5169 129.154L12.5247 129.158L12.988 128.272ZM5.536 121.252L6.39258 120.736L5.536 121.252ZM5.536 100.948L4.67942 100.432L5.536 100.948ZM13.042 93.982L13.5012 94.8704L13.509 94.8663L13.042 93.982ZM33.4 93.226L33.7896 92.305L33.4 93.226ZM40.42 98.356L41.0909 99.0975L41.8051 98.4513L41.1862 97.7134L40.42 98.356ZM33.616 104.512L32.8765 105.185L33.5476 105.922L34.2869 105.254L33.616 104.512ZM16.606 103.27L17.3066 103.984L17.3131 103.977L16.606 103.27ZM14.986 116.716L14.1073 117.194L14.1118 117.202L14.986 116.716ZM18.766 120.55L18.2657 121.416L18.273 121.42L18.2804 121.424L18.766 120.55ZM30.106 120.658L30.5239 121.566L31.106 121.299V120.658H30.106ZM30.106 111.29H39.556V109.29H30.106V111.29ZM38.556 110.29V125.95H40.556V110.29H38.556ZM38.9735 125.137C36.9133 126.614 34.5326 127.755 31.8212 128.555L32.3868 130.473C35.2914 129.617 37.8787 128.382 40.1385 126.763L38.9735 125.137ZM31.8212 128.555C29.1011 129.357 26.3882 129.756 23.68 129.756V131.756C26.5878 131.756 29.4909 131.327 32.3868 130.473L31.8212 128.555ZM23.68 129.756C19.8637 129.756 16.4614 128.959 13.4513 127.386L12.5247 129.158C15.8506 130.897 19.5763 131.756 23.68 131.756V129.756ZM13.4591 127.39C10.4453 125.78 8.09662 123.565 6.39258 120.736L4.67942 121.768C6.57538 124.915 9.19467 127.38 12.5169 129.154L13.4591 127.39ZM6.39258 120.736C4.69422 117.917 3.836 114.714 3.836 111.1H1.836C1.836 115.046 2.77778 118.611 4.67942 121.768L6.39258 120.736ZM3.836 111.1C3.836 107.486 4.69422 104.283 6.39258 101.464L4.67942 100.432C2.77778 103.589 1.836 107.154 1.836 111.1H3.836ZM6.39258 101.464C8.09376 98.6401 10.4557 96.4444 13.5012 94.8704L12.5828 93.0936C9.22034 94.8316 6.57824 97.2799 4.67942 100.432L6.39258 101.464ZM13.509 94.8663C16.5534 93.2585 20.0081 92.444 23.896 92.444V90.444C19.7199 90.444 15.9386 91.3215 12.575 93.0977L13.509 94.8663ZM23.896 92.444C27.311 92.444 30.3435 93.0187 33.0104 94.147L33.7896 92.305C30.8405 91.0573 27.537 90.444 23.896 90.444V92.444ZM33.0104 94.147C35.6796 95.2763 37.8883 96.8936 39.6538 98.9986L41.1862 97.7134C39.2077 95.3544 36.7364 93.5517 33.7896 92.305L33.0104 94.147ZM39.7491 97.6145L32.9451 103.77L34.2869 105.254L41.0909 99.0975L39.7491 97.6145ZM34.3555 103.839C31.624 100.838 28.3016 99.3 24.436 99.3V101.3C27.6984 101.3 30.496 102.57 32.8765 105.185L34.3555 103.839ZM24.436 99.3C20.9759 99.3 18.0961 100.366 15.8989 102.563L17.3131 103.977C19.0759 102.214 21.4161 101.3 24.436 101.3V99.3ZM15.9054 102.556C13.6995 104.722 12.636 107.608 12.636 111.1H14.636C14.636 108.04 15.5525 105.706 17.3066 103.984L15.9054 102.556ZM12.636 111.1C12.636 113.336 13.1194 115.376 14.1074 117.194L15.8646 116.238C15.0526 114.744 14.636 113.04 14.636 111.1H12.636ZM14.1118 117.202C15.1006 118.981 16.4906 120.39 18.2657 121.416L19.2663 119.684C17.8014 118.838 16.6714 117.691 15.8602 116.23L14.1118 117.202ZM18.2804 121.424C20.0669 122.417 22.0919 122.9 24.328 122.9V120.9C22.3881 120.9 20.7051 120.483 19.2516 119.676L18.2804 121.424ZM24.328 122.9C26.519 122.9 28.5881 122.457 30.5239 121.566L29.6881 119.75C28.0239 120.515 26.241 120.9 24.328 120.9V122.9ZM31.106 120.658V110.29H29.106V120.658H31.106ZM46.3347 92.2V91.2H45.3347V92.2H46.3347ZM57.0267 92.2H58.0267V91.2H57.0267V92.2ZM57.0267 130V131H58.0267V130H57.0267ZM46.3347 130H45.3347V131H46.3347V130ZM46.3347 93.2H57.0267V91.2H46.3347V93.2ZM56.0267 92.2V130H58.0267V92.2H56.0267ZM57.0267 129H46.3347V131H57.0267V129ZM47.3347 130V92.2H45.3347V130H47.3347ZM75.3255 100.462V99.462H74.3255V100.462H75.3255ZM75.3255 108.778H74.3255V109.778H75.3255V108.778ZM92.0115 108.778H93.0115V107.778H92.0115V108.778ZM92.0115 117.04V118.04H93.0115V117.04H92.0115ZM75.3255 117.04V116.04H74.3255V117.04H75.3255ZM75.3255 130V131H76.3255V130H75.3255ZM64.6335 130H63.6335V131H64.6335V130ZM64.6335 92.2V91.2H63.6335V92.2H64.6335ZM94.2795 92.2H95.2795V91.2H94.2795V92.2ZM94.2795 100.462V101.462H95.2795V100.462H94.2795ZM74.3255 100.462V108.778H76.3255V100.462H74.3255ZM75.3255 109.778H92.0115V107.778H75.3255V109.778ZM91.0115 108.778V117.04H93.0115V108.778H91.0115ZM92.0115 116.04H75.3255V118.04H92.0115V116.04ZM74.3255 117.04V130H76.3255V117.04H74.3255ZM75.3255 129H64.6335V131H75.3255V129ZM65.6335 130V92.2H63.6335V130H65.6335ZM64.6335 93.2H94.2795V91.2H64.6335V93.2ZM93.2795 92.2V100.462H95.2795V92.2H93.2795ZM94.2795 99.462H75.3255V101.462H94.2795V99.462Z" fill="#F3F0DC"/>
</svg>
